<!DOCTYPE svg PUBLIC "-//W3C//DTD SVG 1.1//EN" "http://www.w3.org/Graphics/SVG/1.1/DTD/svg11.dtd">
<!-- Uploaded to: SVG Repo, www.svgrepo.com, Transformed by: SVG Repo Mixer Tools -->
<svg fill="#ffffff" version="1.1" id="Capa_1" xmlns="http://www.w3.org/2000/svg" xmlns:xlink="http://www.w3.org/1999/xlink" width="800px" height="800px" viewBox="0 0 179.55 179.551" xml:space="preserve" stroke="#ffffff">
<g id="SVGRepo_bgCarrier" stroke-width="0"/>
<g id="SVGRepo_tracerCarrier" stroke-linecap="round" stroke-linejoin="round"/>
<g id="SVGRepo_iconCarrier"> <g> <path d="M169.615,50.805c-5.495,0-9.956,4.464-9.956,9.956c0,2.134,0.686,4.098,1.835,5.725L121.226,97.76L93.91,36.05 c3.438-1.577,5.832-5.025,5.832-9.039c0-5.492-4.461-9.956-9.956-9.956c-5.492,0-9.964,4.464-9.964,9.956 c0,4.014,2.405,7.462,5.843,9.039L58.443,97.527L18.09,66.48c1.139-1.622,1.825-3.586,1.825-5.72c0-5.492-4.461-9.956-9.959-9.956 C4.466,50.805,0,55.269,0,60.761c0,5.493,4.466,9.959,9.956,9.959c0.216,0,0.417-0.055,0.627-0.065l28.566,73.78v14.012 c0,2.236,1.814,4.05,4.05,4.05h93.15c2.235,0,4.05-1.813,4.05-4.05v-14.012l28.566-73.78c0.211,0.01,0.406,0.065,0.627,0.065 c5.49,0,9.957-4.466,9.957-9.959C179.55,55.269,175.104,50.805,169.615,50.805z M89.796,25.155c1.02,0,1.858,0.831,1.858,1.856 c0,1.026-0.833,1.859-1.858,1.859c-1.026,0-1.856-0.833-1.856-1.859C87.94,25.985,88.77,25.155,89.796,25.155z M89.796,46.75 l24.848,56.125l-12.065,9.381l-8.69-22.185c3.459-1.562,5.885-5.031,5.885-9.061c0-5.492-4.472-9.956-9.967-9.956 c-5.492,0-9.956,4.464-9.956,9.956c0,4.034,2.418,7.499,5.88,9.061l-8.466,21.921l-12.189-9.376L89.796,46.75z M89.796,82.87 c-1.021,0-1.856-0.833-1.856-1.859c0-1.025,0.83-1.856,1.856-1.856c1.025,0,1.858,0.831,1.858,1.856 C91.655,82.037,90.816,82.87,89.796,82.87z M89.823,101.915l6.08,15.52l-5.756,4.472l-6.194-4.772L89.823,101.915z M81.156,139.146 l9.007-7.003l9.1,7.003H81.156z M96.778,127.006l2.204-1.698l1.909,4.862L96.778,127.006z M83.537,127.038l-4.875,3.797 l2.247-5.822L83.537,127.038z M66.759,139.146H48.885l12.798-28.909l12.506,9.619L66.759,139.146z M113.094,139.146l-7.446-19.016 l12.371-9.614l12.678,28.641h-17.603V139.146z M8.121,60.761c0-1.02,0.831-1.856,1.859-1.856c1.025,0,1.856,0.831,1.856,1.856 c0,1.026-0.826,1.859-1.856,1.859C8.952,62.62,8.121,61.781,8.121,60.761z M55.086,105.153l-11.974,27.042L23.116,80.562 L55.086,105.153z M132.321,154.396h-85.05v-7.083h85.05V154.396z M136.476,132.185l-11.859-26.8l31.81-24.708L136.476,132.185z M169.615,62.62c-1.023,0-1.856-0.833-1.856-1.859c0-1.025,0.823-1.856,1.856-1.856c1.023,0,1.856,0.831,1.856,1.856 C171.471,61.787,170.638,62.62,169.615,62.62z"/> </g> </g>
</svg>